<?xml version="1.0" encoding="UTF-8"?>
<!DOCTYPE svg PUBLIC "-//W3C//DTD SVG 1.1//EN" "http://www.w3.org/Graphics/SVG/1.1/DTD/svg11.dtd">
<!-- Creator: CorelDRAW 2026 -->
<svg xmlns="http://www.w3.org/2000/svg" xml:space="preserve" width="310mm" height="380mm" version="1.1" style="shape-rendering:geometricPrecision; text-rendering:geometricPrecision; image-rendering:optimizeQuality; fill-rule:evenodd; clip-rule:evenodd"
viewBox="0 0 31000 38000"
 xmlns:xlink="http://www.w3.org/1999/xlink"
 xmlns:xodm="http://www.corel.com/coreldraw/odm/2003">
 <defs>
  <style type="text/css">
   <![CDATA[
    .fil0 {fill:white;fill-rule:nonzero}
   ]]>
  </style>
 </defs>
 <g id="Capa_x0020_1">
  <metadata id="CorelCorpID_0Corel-Layer"/>
  <path class="fil0" d="M3517.08 20739.07l0 -3478.03 1714.17 0c387.55,0 728.73,70.39 1023.53,211.17 294.81,140.78 525.02,340.35 690.64,598.72 165.62,258.36 248.43,568.07 248.43,929.13 0,357.74 -82.81,666.62 -248.43,926.64 -165.62,260.03 -395.83,460.43 -690.64,601.2 -294.8,140.78 -635.98,211.17 -1023.53,211.17l-1714.17 0zm1172.59 -914.22l491.9 0c165.62,0 310.53,-31.47 434.75,-94.41 124.21,-62.93 221.1,-156.51 290.66,-280.72 69.56,-124.22 104.34,-274.11 104.34,-449.66 0,-178.87 -34.78,-329.59 -104.34,-452.15 -69.56,-122.56 -166.45,-215.3 -290.66,-278.24 -124.22,-62.93 -269.13,-94.4 -434.75,-94.4l-491.9 0 0 1649.58z"/>
  <polygon id="_1" class="fil0" points="7398.58,20739.07 7398.58,17261.04 8571.17,17261.04 8571.17,20739.07 "/>
  <path id="_2" class="fil0" d="M10211.83 20818.57c-291.49,0 -573.05,-33.13 -844.67,-99.37 -271.61,-66.25 -495.2,-152.38 -670.76,-258.37l377.62 -854.6c165.62,96.06 350.28,173.07 554,231.04 203.71,57.96 401.63,86.95 593.75,86.95 112.62,0 201.22,-7.45 265.82,-22.36 64.59,-14.91 111.79,-36.44 141.6,-64.59 29.81,-28.16 44.72,-62.11 44.72,-101.86 0,-62.93 -34.78,-112.62 -104.34,-149.06 -69.56,-36.43 -161.48,-67.07 -275.76,-91.92 -114.28,-24.84 -239.32,-51.34 -375.13,-79.49 -135.81,-28.16 -272.45,-65.42 -409.91,-111.8 -137.47,-46.37 -263.34,-107.65 -377.61,-183.84 -114.28,-76.18 -206.2,-176.38 -275.76,-300.6 -69.56,-124.21 -104.34,-279.07 -104.34,-464.56 0,-215.31 60.45,-411.57 181.35,-588.78 120.9,-177.22 301.43,-318.82 541.58,-424.82 240.15,-106 539.09,-158.99 896.83,-158.99 235.18,0 467.05,24.84 695.61,74.52 228.56,49.69 433.92,125.88 616.11,228.56l-352.77 849.63c-172.25,-86.12 -338.7,-150.71 -499.35,-193.77 -160.65,-43.06 -317.16,-64.6 -469.53,-64.6 -112.63,0 -202.06,9.94 -268.31,29.82 -66.25,19.87 -113.45,46.37 -141.6,79.49 -28.16,33.13 -42.24,69.56 -42.24,109.31 0,59.63 34.78,106.83 104.34,141.61 69.56,34.78 161.48,63.76 275.76,86.95 114.28,23.19 240.15,48.03 377.62,74.53 137.46,26.5 274.1,62.93 409.91,109.31 135.8,46.37 260.85,107.65 375.13,183.84 114.27,76.18 206.19,175.55 275.75,298.11 69.56,122.56 104.34,274.93 104.34,457.12 0,211.99 -60.45,406.59 -181.35,583.81 -120.9,177.21 -300.6,319.64 -539.09,427.3 -238.5,107.65 -538.27,161.48 -899.32,161.48z"/>
  <path id="_3" class="fil0" d="M11579.22 20739.07l1520.39 -3478.03 1152.72 0 1520.39 3478.03 -1212.34 0 -1122.9 -2921.54 457.11 0 -1122.91 2921.54 -1192.46 0zm904.28 -606.17l298.12 -844.66 1599.89 0 298.12 844.66 -2196.13 0z"/>
  <polygon id="_4" class="fil0" points="15738.96,20739.07 15738.96,17261.04 16911.55,17261.04 16911.55,20739.07 "/>
  <polygon id="_5" class="fil0" points="17255.4,20739.07 17255.4,17261.04 18219.31,17261.04 19988.14,19377.67 19540.96,19377.67 19540.96,17261.04 20683.74,17261.04 20683.74,20739.07 19719.83,20739.07 17951.01,18622.44 18398.18,18622.44 18398.18,20739.07 "/>
  <path id="_6" class="fil0" d="M21027.59 20739.07l0 -3478.03 2827.14 0 0 884.42 -1674.42 0 0 1709.2 1739.01 0 0 884.41 -2891.73 0zm1073.22 -1341.52l0 -844.67 1550.21 0 0 844.67 -1550.21 0z"/>
  <path id="_7" class="fil0" d="M24148.89 20739.07l0 -3478.03 1624.74 0c533.29,0 939.06,117.59 1217.31,352.77 278.24,235.19 417.36,554.83 417.36,958.95 0,268.3 -64.59,499.34 -193.78,693.12 -129.18,193.77 -312.19,342 -549.03,444.69 -236.84,102.68 -517.56,154.02 -842.18,154.02l-1023.53 0 521.7 -481.95 0 1356.43 -1172.59 0zm2081.85 0l-854.6 -1267 1242.15 0 864.54 1267 -1252.09 0zm-909.26 -1227.25l-521.7 -531.64 949 0c162.31,0 282.39,-36.43 360.23,-109.31 77.84,-72.87 116.76,-172.24 116.76,-298.11 0,-125.88 -38.92,-225.25 -116.76,-298.12 -77.84,-72.87 -197.92,-109.31 -360.23,-109.31l-949 0 521.7 -531.64 0 1878.13z"/>
 </g>
</svg>
