<?xml version="1.0" encoding="UTF-8"?>
<!DOCTYPE svg PUBLIC "-//W3C//DTD SVG 1.1//EN" "http://www.w3.org/Graphics/SVG/1.1/DTD/svg11.dtd">
<!-- Creator: CorelDRAW 2026 -->
<svg xmlns="http://www.w3.org/2000/svg" xml:space="preserve" width="1346.61mm" height="223.84mm" version="1.1" style="shape-rendering:geometricPrecision; text-rendering:geometricPrecision; image-rendering:optimizeQuality; fill-rule:evenodd; clip-rule:evenodd"
viewBox="0 0 134661 22384"
 xmlns:xlink="http://www.w3.org/1999/xlink"
 xmlns:xodm="http://www.corel.com/coreldraw/odm/2003">
 <defs>
  <style type="text/css">
   <![CDATA[
    .fil0 {fill:black}
   ]]>
  </style>
 </defs>
 <g id="Capa_x0020_1">
  <metadata id="CorelCorpID_0Corel-Layer"/>
  <g id="_1899875479040">
   <polygon class="fil0" points="100773.55,22383.98 93972.39,22383.98 85982.43,12822.96 85965.37,22383.98 78561.29,22383.98 78561.29,515.09 84806.47,515.09 93385.77,10781.34 93369.46,515.09 100773.55,515.09 "/>
   <path class="fil0" d="M123224.38 22383.98l0 -21868.89 10526.68 0c310.04,0 613.3,6.24 910.04,18.51l0 5940.7c-318.25,-66.87 -675.24,-100.32 -1071,-100.32l-6148.61 0 3380.12 -3444.51 0 12168.45 -3380.12 -3444.5 6148.61 0c395.76,0 752.75,-33.46 1071,-100.33l0 3287.3 -3485.38 0 3485.38 5167.28 0 -2633.05c-193.51,5.93 -544.94,-553.84 -743.52,-553.84l-6476.09 562.75 3380.12 -3122.59 0 8123.04 -7597.23 0z"/>
   <polygon class="fil0" points="109954.79,14357.52 109954.79,8884.93 119998.59,8884.93 119998.59,14357.52 "/>
   <polygon class="fil0" points="22295.96,22383.98 14698.73,22383.98 14698.73,515.09 22295.96,515.09 "/>
   <polygon class="fil0" points="22295.96,22383.98 14698.73,22383.98 14698.73,515.09 22295.96,515.09 "/>
   <path class="fil0" d="M39039.24 22383.98l-13432.51 0c-954.84,-328.78 -1787.97,-707.92 -2499.36,-1137.44l2446.57 -5536.97c1073.06,622.37 2269.51,1121.34 3589.37,1496.91 1319.86,375.57 2602.16,563.35 3846.91,563.35 729.68,0 1303.76,-48.28 1722.25,-144.86 418.49,-96.57 724.32,-236.07 917.47,-418.49 193.15,-182.42 289.72,-402.4 289.72,-659.93 0,-407.76 -225.34,-729.68 -676.02,-965.75 -450.69,-236.07 -1046.23,-434.59 -1786.64,-595.55 -740.41,-160.95 -1550.57,-332.64 -2430.47,-515.06 -879.91,-182.42 -1765.18,-423.86 -2655.82,-724.32 -890.63,-300.45 -1706.16,-697.48 -2446.57,-1191.09 -740.4,-493.6 -1335.95,-1142.8 -1786.63,-1947.59 -450.69,-804.8 -676.03,-1808.1 -676.03,-3009.93 0,-1394.97 391.67,-2666.54 1175,-3814.71 783.33,-1148.17 1952.96,-2065.63 3508.89,-2752.39 1555.93,-686.76 3492.8,-1030.13 5810.6,-1030.13 1523.74,0 3026.02,160.96 4506.83,482.87 1480.82,321.92 2811.41,815.52 3991.77,1480.82l-2285.61 5504.78c-1115.98,-557.99 -2194.4,-976.48 -3235.26,-1255.48 -1040.87,-278.99 -2054.9,-418.49 -3042.12,-418.49 -729.67,0 -1309.12,64.38 -1738.35,193.15 -429.22,128.77 -735.04,300.46 -917.46,515.07 -182.42,214.61 -273.63,450.68 -273.63,708.21 0,386.3 225.34,692.12 676.03,917.47 450.68,225.34 1046.23,413.12 1786.64,563.35 740.4,150.23 1555.93,311.19 2446.56,482.88 890.64,171.68 1775.91,407.76 2655.82,708.21 879.9,300.46 1690.06,697.49 2430.47,1191.09 740.41,493.61 1335.95,1137.44 1786.64,1931.51 450.68,794.06 676.02,1781.27 676.02,2961.63 0,1373.51 -391.66,2634.35 -1174.99,3782.52 -734.13,1076.04 -1802.83,1954.16 -3206.09,2634.36z"/>
   <path class="fil0" d="M39039.24 22383.98l-13432.51 0c-954.84,-328.78 -1787.97,-707.92 -2499.36,-1137.44l2446.57 -5536.97c1073.06,622.37 2269.51,1121.34 3589.37,1496.91 1319.86,375.57 2602.16,563.35 3846.91,563.35 729.68,0 1303.76,-48.28 1722.25,-144.86 418.49,-96.57 724.32,-236.07 917.47,-418.49 193.15,-182.42 289.72,-402.4 289.72,-659.93 0,-407.76 -225.34,-729.68 -676.02,-965.75 -450.69,-236.07 -1046.23,-434.59 -1786.64,-595.55 -740.41,-160.95 -1550.57,-332.64 -2430.47,-515.06 -879.91,-182.42 -1765.18,-423.86 -2655.82,-724.32 -890.63,-300.45 -1706.16,-697.48 -2446.57,-1191.09 -740.4,-493.6 -1335.95,-1142.8 -1786.63,-1947.59 -450.69,-804.8 -676.03,-1808.1 -676.03,-3009.93 0,-1394.97 391.67,-2666.54 1175,-3814.71 783.33,-1148.17 1952.96,-2065.63 3508.89,-2752.39 1555.93,-686.76 3492.8,-1030.13 5810.6,-1030.13 1523.74,0 3026.02,160.96 4506.83,482.87 1480.82,321.92 2811.41,815.52 3991.77,1480.82l-2285.61 5504.78c-1115.98,-557.99 -2194.4,-976.48 -3235.26,-1255.48 -1040.87,-278.99 -2054.9,-418.49 -3042.12,-418.49 -729.67,0 -1309.12,64.38 -1738.35,193.15 -429.22,128.77 -735.04,300.46 -917.46,515.07 -182.42,214.61 -273.63,450.68 -273.63,708.21 0,386.3 225.34,692.12 676.03,917.47 450.68,225.34 1046.23,413.12 1786.64,563.35 740.4,150.23 1555.93,311.19 2446.56,482.88 890.64,171.68 1775.91,407.76 2655.82,708.21 879.9,300.46 1690.06,697.49 2430.47,1191.09 740.41,493.61 1335.95,1137.44 1786.64,1931.51 450.68,794.06 676.02,1781.27 676.02,2961.63 0,1373.51 -391.66,2634.35 -1174.99,3782.52 -734.13,1076.04 -1802.83,1954.16 -3206.09,2634.36z"/>
   <polygon class="fil0" points="68664.11,22383.98 60844.46,22383.98 53824.85,4120.56 56786.48,4120.56 49766.87,22383.98 42075.99,22383.98 51635.81,515.09 59104.28,515.09 "/>
   <path class="fil0" d="M68664.11 22383.98l-7819.65 0 -1253.8 -3262.09 -8567.94 0 -1255.85 3262.09 -7690.88 0 9559.82 -21868.89 7468.47 0 9559.83 21868.89zm-11176.86 -8734.68l-2177.05 -5664.19 -2180.62 5664.19 4357.67 0z"/>
   <polygon class="fil0" points="76333.44,22383.98 68736.21,22383.98 68736.21,515.09 76333.44,515.09 "/>
   <polygon class="fil0" points="76333.44,22383.98 68736.21,22383.98 68736.21,515.09 76333.44,515.09 "/>
   <polygon class="fil0" points="121736.94,22383.98 103001.39,22383.98 103001.39,515.09 121318.45,515.09 121318.45,6245.21 110469.86,6245.21 110469.86,17319.15 121736.94,17319.15 "/>
   <polygon class="fil0" points="121736.94,22383.98 103001.39,22383.98 103001.39,515.09 121318.45,515.09 121318.45,6245.21 110469.86,6245.21 110469.86,17319.15 121736.94,17319.15 "/>
   <path class="fil0" d="M134661.1 533.6l0 5940.7c-318.25,-66.87 -675.24,-100.32 -1071,-100.32l-2746.03 0 -73.87 5279.44 2819.9 0c395.76,0 752.75,-33.46 1071,-100.33l0 8454.58 0 -2633.05c-195.14,5.98 -390.98,10.32 -587.29,13.38 -1068.16,16.65 -2150.7,-4.47 -3214.96,-4.47l-37.24 5000.45 -7597.23 0 0 -21868.89 10526.68 0c310.04,0 613.3,6.24 910.04,18.51z"/>
   <path class="fil0" d="M-0.11 515.09l656.65 0c2510.95,0 4721.44,456.05 6631.48,1368.15 1910.04,912.1 3401.59,2205.13 4474.65,3879.1 1073.05,1673.97 1609.58,3680.58 1609.58,6019.84 0,2317.8 -536.53,4319.05 -1609.58,6003.75 -1073.06,1684.7 -2564.61,2983.1 -4474.65,3895.19 -29.23,13.96 -58.52,27.8 -87.89,41.54l-4.07 1.9c-28.56,13.35 -57.19,26.6 -85.89,39.76l-4.16 1.9c-28.52,13.06 -57.12,26.04 -85.77,38.89l-2.8 1.27 -2.47 1.1c-28.57,12.81 -57.21,25.51 -85.91,38.12l-6.64 2.91c-27.66,12.13 -55.36,24.17 -83.14,36.11l-9 3.86c-26.71,11.46 -53.46,22.83 -80.28,34.12l-13.36 5.63c-25.46,10.68 -50.98,21.29 -76.54,31.82l-20.34 8.36c-24.3,9.96 -48.64,19.86 -73.03,29.69l-19.55 7.85c-23,9.22 -46.05,18.38 -69.13,27.48l-26.97 10.6c-21.79,8.53 -43.6,17 -65.47,25.43l-30.83 11.84c-19.9,7.61 -39.83,15.18 -59.78,22.7l-35.27 13.24c-19.25,7.19 -38.52,14.33 -57.82,21.43l-40.88 14.98c-17.67,6.44 -35.36,12.84 -53.08,19.21 -14.28,5.14 -28.58,10.25 -42.89,15.34 -15.57,5.54 -31.15,11.05 -46.76,16.53 -18.79,6.61 -37.62,13.16 -56.47,19.69l-36.39 12.55c-20.99,7.2 -42.02,14.36 -63.07,21.46l-29.68 9.98c-22.01,7.37 -44.05,14.69 -66.12,21.96l-0.93 0.31 -29.3 9.61 -3.14 1.02c-24.4,7.96 -48.85,15.85 -73.33,23.68l-16.38 5.24c-26.16,8.33 -52.37,16.59 -78.63,24.78l-14.48 4.51c-26.28,8.16 -52.61,16.26 -78.98,24.28l-0.58 0.18 -5470.93 0 0 -5257.98 334.73 0c1073.05,0 2011.98,-203.88 2816.77,-611.64 804.79,-407.76 1432.53,-1014.04 1883.21,-1818.83 450.69,-804.79 676.03,-1775.91 676.03,-2913.35 0,-1158.9 -225.34,-2135.38 -676.03,-2929.44 -450.68,-794.06 -1078.42,-1394.97 -1883.21,-1802.74 -804.79,-407.76 -1743.72,-611.64 -2816.77,-611.64l-334.73 0 0 -5923.27z"/>
  </g>
 </g>
</svg>
