<?xml version="1.0" encoding="UTF-8"?>
<!DOCTYPE svg PUBLIC "-//W3C//DTD SVG 1.1//EN" "http://www.w3.org/Graphics/SVG/1.1/DTD/svg11.dtd">
<!-- Creator: CorelDRAW -->
<svg xmlns="http://www.w3.org/2000/svg" xml:space="preserve" width="8mm" height="8mm" version="1.1" style="shape-rendering:geometricPrecision; text-rendering:geometricPrecision; image-rendering:optimizeQuality; fill-rule:evenodd; clip-rule:evenodd"
viewBox="0 0 800 800"
 xmlns:xlink="http://www.w3.org/1999/xlink"
 xmlns:xodm="http://www.corel.com/coreldraw/odm/2003">
 <defs>
  <style type="text/css">
   <![CDATA[
    .str0 {stroke:#1F1B20;stroke-width:20;stroke-miterlimit:22.9256}
    .fil0 {fill:#1F1B20;fill-rule:nonzero}
   ]]>
  </style>
 </defs>
 <g id="Capa_x0020_1">
  <metadata id="CorelCorpID_0Corel-Layer"/>
  <g id="_2982149020864">
   <path class="fil0" d="M739.57 693.92c0,29.39 -23.93,53.32 -53.32,53.32l-586.77 0c-29.4,0 -53.32,-23.93 -53.32,-53.32l0 -586.78c0,-29.39 23.92,-53.32 53.32,-53.32l586.77 0c29.39,0 53.32,23.93 53.32,53.32l0 586.78zm-53.32 -675.65l-586.77 0c-49.07,0 -88.87,39.8 -88.87,88.87l0 586.78c0,49.06 39.8,88.86 88.87,88.86l586.77 0c49.09,0 88.89,-39.8 88.89,-88.86l0 -586.78c0,-49.07 -39.8,-88.87 -88.89,-88.87z"/>
   <g>
    <polygon class="fil0 str0" points="590.86,260.32 456.97,260.32 456.97,291.41 590.86,291.41 "/>
    <path class="fil0 str0" d="M312.26 491.77c-7.41,3.63 -17.83,5.42 -31.19,5.42l-74.81 0 0 -82.13 75.83 0c13.26,0.14 23.5,1.87 30.8,5.22 13.08,5.98 19.63,16.99 19.63,33.01 0,18.95 -6.75,31.78 -20.26,38.48zm-106 -195.65l67.03 0c14.76,0 26.9,1.6 36.42,4.82 11.04,4.59 16.55,14.06 16.55,28.41 0,12.97 -4.18,22 -12.53,27.07 -8.32,5.09 -19.19,7.63 -32.59,7.63l-74.88 0 0 -67.93zm143.68 89.24c10.34,-5.29 18.18,-11.13 23.5,-17.55 9.5,-11.41 14.28,-26.55 14.28,-45.37 0,-18.24 -4.73,-33.92 -14.16,-47.02 -15.66,-21.31 -42.27,-32.25 -79.83,-32.81l-148.92 0 0 308.09 138.84 0c15.64,0 30.17,-1.39 43.53,-4.18 13.37,-2.77 24.99,-7.93 34.82,-15.46 8.7,-6.55 15.99,-14.62 21.82,-24.23 9.14,-14.52 13.71,-30.87 13.71,-49.15 0,-17.68 -4.01,-32.74 -12,-45.14 -8,-12.4 -19.86,-21.46 -35.59,-27.18z"/>
    <path class="fil0 str0" d="M476.39 414.2c2.17,-14.81 7.46,-26.57 15.87,-35.25 8.43,-8.67 20.27,-13.01 35.55,-13.01 14.06,0 25.85,4.1 35.35,12.27 9.49,8.18 14.79,20.2 15.87,35.99l-102.64 0zm162.51 -5.91c-2.76,-17.86 -8.82,-33.58 -18.15,-47.1 -10.34,-15.34 -23.48,-26.59 -39.39,-33.7 -15.86,-7.12 -33.73,-10.66 -53.57,-10.66 -33.37,0 -60.53,10.51 -81.45,31.58 -20.94,21.04 -31.39,51.3 -31.39,90.78 0,42.12 11.59,72.52 34.75,91.22 23.18,18.7 49.93,28.04 80.25,28.04 36.74,0 65.32,-11.07 85.71,-33.25 13.13,-13.94 20.5,-27.67 22.11,-41.17l-60.84 0c-3.54,6.68 -7.62,11.91 -12.26,15.67 -8.48,6.97 -19.52,10.46 -33.08,10.46 -12.8,0 -23.74,-2.85 -32.83,-8.58 -14.96,-9.19 -22.91,-25.22 -23.83,-48.08l165.93 0c0.3,-19.67 -0.36,-34.75 -1.96,-45.21z"/>
   </g>
  </g>
 </g>
</svg>
