<?xml version="1.0" encoding="UTF-8"?>
<!DOCTYPE svg PUBLIC "-//W3C//DTD SVG 1.1//EN" "http://www.w3.org/Graphics/SVG/1.1/DTD/svg11.dtd">
<!-- Creator: CorelDRAW 2026 -->
<svg xmlns="http://www.w3.org/2000/svg" xml:space="preserve" width="297mm" height="110mm" version="1.1" style="shape-rendering:geometricPrecision; text-rendering:geometricPrecision; image-rendering:optimizeQuality; fill-rule:evenodd; clip-rule:evenodd"
viewBox="0 0 29700 11000"
 xmlns:xlink="http://www.w3.org/1999/xlink"
 xmlns:xodm="http://www.corel.com/coreldraw/odm/2003">
 <defs>
  <style type="text/css">
   <![CDATA[
    .fil0 {fill:black}
   ]]>
  </style>
 </defs>
 <g id="Capa_x0020_1">
  <metadata id="CorelCorpID_0Corel-Layer"/>
  <g id="_2208360176704">
   <path class="fil0" d="M13836.36 5566.82l-0.06 331.2c337.66,-1.72 339.46,-50.06 569.59,113.87 100.22,71.38 317.45,250.59 408.72,292.34l-24.17 -1601.79c-71.31,91.6 -282.95,216.27 -388.14,295.28 -214.53,161.14 -234.89,114.08 -564.34,113.09l-1.6 456.01z"/>
   <polygon class="fil0" points="14571.71,5188.69 14571.75,5704.34 14571.9,5755.93 14567.53,5824.96 14130.88,5498.63 "/>
   <path class="fil0" d="M15206.81 4857.23c193.02,169.48 479.07,226.56 460.24,675.38 -19.64,467.94 -420.9,509.24 -454.23,661.86 57.73,287.63 652.84,-166.94 649.8,-696.4 -2.61,-454.19 -580.05,-1043.5 -655.81,-640.84z"/>
   <path class="fil0" d="M15074.77 5894.56c199.4,23.25 355.43,-192.63 352.54,-396.76 -2.68,-189.13 -156.97,-404.45 -326.33,-389.77 -117.27,59.55 -57.62,135.6 22.03,187.27 69.01,44.75 117.82,103.75 119.56,203.36 5.03,288.77 -286.53,153.55 -167.8,395.9z"/>
  </g>
 </g>
</svg>
